<mxfile host="app.diagrams.net" modified="2023-04-24T04:45:12.071Z" agent="Mozilla/5.0 (Windows NT 10.0; Win64; x64) AppleWebKit/537.36 (KHTML, like Gecko) Chrome/112.0.0.0 Safari/537.36 Edg/112.0.1722.46" etag="M2f4ZXuzE-1un5bb-Eqs" version="21.2.1" type="github">
  <diagram name="第 1 页" id="vpVr9wLd59iHfjmc1Fgw">
    <mxGraphModel dx="1034" dy="477" grid="1" gridSize="10" guides="1" tooltips="1" connect="1" arrows="1" fold="1" page="1" pageScale="1" pageWidth="827" pageHeight="1169" math="0" shadow="0">
      <root>
        <mxCell id="0" />
        <mxCell id="1" parent="0" />
        <mxCell id="r9FHryzHmgs-fdzLDwxx-15" style="rounded=0;orthogonalLoop=1;jettySize=auto;html=1;entryX=0;entryY=0.5;entryDx=0;entryDy=0;" edge="1" parent="1" target="r9FHryzHmgs-fdzLDwxx-10">
          <mxGeometry relative="1" as="geometry">
            <mxPoint x="160" y="290" as="sourcePoint" />
          </mxGeometry>
        </mxCell>
        <mxCell id="r9FHryzHmgs-fdzLDwxx-16" value="调查问卷" style="edgeLabel;html=1;align=center;verticalAlign=middle;resizable=0;points=[];" vertex="1" connectable="0" parent="r9FHryzHmgs-fdzLDwxx-15">
          <mxGeometry x="0.3619" y="1" relative="1" as="geometry">
            <mxPoint x="-18" y="1" as="offset" />
          </mxGeometry>
        </mxCell>
        <mxCell id="r9FHryzHmgs-fdzLDwxx-18" style="edgeStyle=orthogonalEdgeStyle;rounded=0;orthogonalLoop=1;jettySize=auto;html=1;exitX=1;exitY=1;exitDx=0;exitDy=0;entryX=0.353;entryY=-0.033;entryDx=0;entryDy=0;entryPerimeter=0;curved=1;" edge="1" parent="1" source="r9FHryzHmgs-fdzLDwxx-10" target="r9FHryzHmgs-fdzLDwxx-17">
          <mxGeometry relative="1" as="geometry">
            <Array as="points">
              <mxPoint x="349" y="311" />
            </Array>
          </mxGeometry>
        </mxCell>
        <mxCell id="r9FHryzHmgs-fdzLDwxx-10" value="3.1 设计调查问卷" style="shape=ellipse;html=1;dashed=0;whiteSpace=wrap;perimeter=ellipsePerimeter;" vertex="1" parent="1">
          <mxGeometry x="240" y="260" width="100" height="60" as="geometry" />
        </mxCell>
        <mxCell id="r9FHryzHmgs-fdzLDwxx-20" style="edgeStyle=orthogonalEdgeStyle;curved=1;rounded=0;orthogonalLoop=1;jettySize=auto;html=1;exitX=0.627;exitY=0.056;exitDx=0;exitDy=0;entryX=0;entryY=1;entryDx=0;entryDy=0;exitPerimeter=0;" edge="1" parent="1" source="r9FHryzHmgs-fdzLDwxx-17" target="r9FHryzHmgs-fdzLDwxx-11">
          <mxGeometry relative="1" as="geometry">
            <Array as="points">
              <mxPoint x="377" y="311" />
            </Array>
          </mxGeometry>
        </mxCell>
        <mxCell id="r9FHryzHmgs-fdzLDwxx-21" style="rounded=0;orthogonalLoop=1;jettySize=auto;html=1;exitX=1;exitY=0.5;exitDx=0;exitDy=0;entryX=0;entryY=0.5;entryDx=0;entryDy=0;" edge="1" parent="1" source="r9FHryzHmgs-fdzLDwxx-11" target="r9FHryzHmgs-fdzLDwxx-12">
          <mxGeometry relative="1" as="geometry" />
        </mxCell>
        <mxCell id="r9FHryzHmgs-fdzLDwxx-22" value="调查问卷" style="edgeLabel;html=1;align=center;verticalAlign=middle;resizable=0;points=[];" vertex="1" connectable="0" parent="r9FHryzHmgs-fdzLDwxx-21">
          <mxGeometry x="-0.4222" y="1" relative="1" as="geometry">
            <mxPoint x="13" y="1" as="offset" />
          </mxGeometry>
        </mxCell>
        <mxCell id="r9FHryzHmgs-fdzLDwxx-11" value="3.2 发布调查问卷" style="shape=ellipse;html=1;dashed=0;whiteSpace=wrap;perimeter=ellipsePerimeter;" vertex="1" parent="1">
          <mxGeometry x="390" y="260" width="100" height="60" as="geometry" />
        </mxCell>
        <mxCell id="r9FHryzHmgs-fdzLDwxx-24" style="rounded=0;orthogonalLoop=1;jettySize=auto;html=1;exitX=0.5;exitY=1;exitDx=0;exitDy=0;entryX=0.5;entryY=0;entryDx=0;entryDy=0;edgeStyle=orthogonalEdgeStyle;curved=1;" edge="1" parent="1" source="r9FHryzHmgs-fdzLDwxx-12" target="r9FHryzHmgs-fdzLDwxx-23">
          <mxGeometry relative="1" as="geometry">
            <Array as="points">
              <mxPoint x="590" y="320" />
            </Array>
          </mxGeometry>
        </mxCell>
        <mxCell id="r9FHryzHmgs-fdzLDwxx-28" style="rounded=0;orthogonalLoop=1;jettySize=auto;html=1;entryX=0.5;entryY=0;entryDx=0;entryDy=0;" edge="1" parent="1" target="r9FHryzHmgs-fdzLDwxx-12">
          <mxGeometry relative="1" as="geometry">
            <mxPoint x="610" y="200" as="sourcePoint" />
          </mxGeometry>
        </mxCell>
        <mxCell id="r9FHryzHmgs-fdzLDwxx-29" value="调查问卷填写表单" style="edgeLabel;html=1;align=center;verticalAlign=middle;resizable=0;points=[];" vertex="1" connectable="0" parent="r9FHryzHmgs-fdzLDwxx-28">
          <mxGeometry x="0.2733" y="1" relative="1" as="geometry">
            <mxPoint as="offset" />
          </mxGeometry>
        </mxCell>
        <mxCell id="r9FHryzHmgs-fdzLDwxx-12" value="3.3 填写调查问卷" style="shape=ellipse;html=1;dashed=0;whiteSpace=wrap;perimeter=ellipsePerimeter;" vertex="1" parent="1">
          <mxGeometry x="560" y="260" width="100" height="60" as="geometry" />
        </mxCell>
        <mxCell id="r9FHryzHmgs-fdzLDwxx-27" style="edgeStyle=orthogonalEdgeStyle;curved=1;rounded=0;orthogonalLoop=1;jettySize=auto;html=1;exitX=1;exitY=1;exitDx=0;exitDy=0;" edge="1" parent="1" source="r9FHryzHmgs-fdzLDwxx-13" target="r9FHryzHmgs-fdzLDwxx-14">
          <mxGeometry relative="1" as="geometry">
            <Array as="points">
              <mxPoint x="590" y="476" />
            </Array>
          </mxGeometry>
        </mxCell>
        <mxCell id="r9FHryzHmgs-fdzLDwxx-30" style="edgeStyle=orthogonalEdgeStyle;curved=1;rounded=0;orthogonalLoop=1;jettySize=auto;html=1;exitX=0;exitY=0.5;exitDx=0;exitDy=0;" edge="1" parent="1" source="r9FHryzHmgs-fdzLDwxx-13">
          <mxGeometry relative="1" as="geometry">
            <mxPoint x="420" y="530" as="targetPoint" />
          </mxGeometry>
        </mxCell>
        <mxCell id="r9FHryzHmgs-fdzLDwxx-31" value="就业统计结果" style="edgeLabel;html=1;align=center;verticalAlign=middle;resizable=0;points=[];" vertex="1" connectable="0" parent="r9FHryzHmgs-fdzLDwxx-30">
          <mxGeometry x="0.2673" y="7" relative="1" as="geometry">
            <mxPoint as="offset" />
          </mxGeometry>
        </mxCell>
        <mxCell id="r9FHryzHmgs-fdzLDwxx-13" value="3.4 统计调查结果" style="shape=ellipse;html=1;dashed=0;whiteSpace=wrap;perimeter=ellipsePerimeter;" vertex="1" parent="1">
          <mxGeometry x="470" y="425" width="100" height="60" as="geometry" />
        </mxCell>
        <mxCell id="r9FHryzHmgs-fdzLDwxx-14" value="统计结果表" style="html=1;dashed=0;whiteSpace=wrap;shape=partialRectangle;right=0;left=0;" vertex="1" parent="1">
          <mxGeometry x="540" y="510" width="100" height="30" as="geometry" />
        </mxCell>
        <mxCell id="r9FHryzHmgs-fdzLDwxx-17" value="调查问卷模板库" style="html=1;dashed=0;whiteSpace=wrap;shape=partialRectangle;right=0;left=0;" vertex="1" parent="1">
          <mxGeometry x="314" y="360" width="100" height="30" as="geometry" />
        </mxCell>
        <mxCell id="r9FHryzHmgs-fdzLDwxx-25" style="edgeStyle=orthogonalEdgeStyle;curved=1;rounded=0;orthogonalLoop=1;jettySize=auto;html=1;exitX=0.5;exitY=1;exitDx=0;exitDy=0;entryX=1;entryY=0;entryDx=0;entryDy=0;" edge="1" parent="1" source="r9FHryzHmgs-fdzLDwxx-23" target="r9FHryzHmgs-fdzLDwxx-13">
          <mxGeometry relative="1" as="geometry">
            <Array as="points">
              <mxPoint x="590" y="434" />
            </Array>
          </mxGeometry>
        </mxCell>
        <mxCell id="r9FHryzHmgs-fdzLDwxx-23" value="调查问卷表单记录" style="html=1;dashed=0;whiteSpace=wrap;shape=partialRectangle;right=0;left=0;" vertex="1" parent="1">
          <mxGeometry x="540" y="360" width="100" height="30" as="geometry" />
        </mxCell>
      </root>
    </mxGraphModel>
  </diagram>
</mxfile>
